<svg xmlns="http://www.w3.org/2000/svg" viewBox="0 0 1499 1144"><defs><style>.cls-1{fill:#ffc6ac;stroke:#c4a29e;stroke-miterlimit:10;}.cls-2,.cls-3{fill:#002a32;}.cls-3{font-size:140px;font-family:BookmanOldStyle, Bookman Old Style;}</style></defs><g id="Layer_3" data-name="Layer 3"><rect class="cls-1" x="0.5" y="0.5" width="1498" height="1143"/></g><g id="Layer_1" data-name="Layer 1"><path class="cls-2" d="M740.54,787.11v0Z" transform="translate(147 0)"/><path class="cls-2" d="M740.52,787l0,.16Z" transform="translate(147 0)"/><path class="cls-2" d="M740.47,786.67h0v0Z" transform="translate(147 0)"/><path class="cls-2" d="M740.47,786.69l0,.26Z" transform="translate(147 0)"/><path class="cls-2" d="M915.09,310.34c-5-5.51-9.47-15.56-13.79-27.12V265.69L900.13,261a56.24,56.24,0,0,0-22.2-25.95c-5.88-.69-10.62-3.78-15-7.71v-5.84c-1.13-2.47-1.89-6.1-2.33-10.76V177.32a31.44,31.44,0,0,0-1.17-17.06l-9.59,10.05-2.8-8.41c-6.14,2.57-24.24,22.28-45.82,47l-24.93,5.53a57.68,57.68,0,0,0-26.5,13.72c-9,6.05-16.55,15.73-23.37,27.43-5.8,8.33-12.09,20.32-19,37.09l-14,12.78-13.7,13.4-37.42,20.26-43,15.58-42.08,14c-8.53,4.22-18.73,12.77-29.61,23.07-9.05,9.82-18.21,23.8-27.43,39.89l-32.73,45.2-22.44,34q-1.69,2.58-3.28,5.22C572.38,479.66,800.38,398.7,848.58,367.47c-.47-3.51-.86-6.44-1-7.81.73-4.54,5-9,13.32-13.32a132.51,132.51,0,0,0,28.29,3.5c6.19-.72,11.56-2.76,15.43-7.24,4-4.76,7.15-9.55,7.94-14.5l2.57-6.07A24.58,24.58,0,0,0,915.09,310.34Z" transform="translate(147 0)"/><path class="cls-2" d="M425.1,553.51c-1.09,3.77-2.05,7.61-2.86,11.55-5,20.06-8.27,40.45-7.17,61.72l2.49,33.35,2.18,32.41L423,733.69l2.33,49.24H659.2c-2.69-7.29-8.11-13.1-15.66-17.76-4.86,0-9.1-.24-10.6-1.87-2.74-.38-1.49-4.27,2.18-10.29,5.09-4.47,8.86-9.29,10.6-14.65,2.63-2.09,5.08-5.12,5.92-15.89,1.21-1.47,1.3-8.62,1.25-16.52,1.47-2.41,2.71-2.59,3.74-.63,1.57,5.46,3.34,11.62,5.3,18.39v59.54l78.54,3.42c-.21-1.28-.85-5.1-2.18-13.09-.47-4.26-2.72-8.43-6-12.54-5.23-6.87-15-10-29-9.82-1.68-.38-2.89-1.7-3.74-3.74,0,.31,4.65-50.8,7.48-81.82l8-65.22,1.4-50.49,58.21-44.18L798,481.69c10.37-8.83,19.5-17.6,25-26.18,9-8.84,15.67-20.48,20.34-34.6a103.25,103.25,0,0,0,6.08-23.14C750.35,468.33,604.35,520.18,425.1,553.51Z" transform="translate(147 0)"/><path class="cls-2" d="M740.55,787.14Z" transform="translate(147 0)"/><path class="cls-2" d="M510.42,677.13a15.27,15.27,0,0,1-8.05,7.27c-9.18,2-19.82-.8-31.23-6.08-16.27-6.52-32.09-16.3-47.68-27.66-15-11.68-27.95-23.35-37.9-35a131.36,131.36,0,0,1-19.7-26.44c-10.23-18.63-18.15-36.07-22.1-51.45-4.93-18.44-7.51-35.86-6.46-51.7.12-26.23,6.07-48.12,15.74-67.24,8.39-16.74,18.72-27.61,31-32.45,18.69-6,33.59-3.8,45.85,4.23A70.94,70.94,0,0,1,442,400.49V347.72A272.12,272.12,0,0,0,413.26,339a90.09,90.09,0,0,0-36.35,1.37c-12.92,4.1-24.25,11.37-34.31,21.19-11.78,11.92-21,27.14-28.81,44.15l-9.73,28.76-4.77,21.12-2.1,33.89c2.17,29.24,6.23,55.09,14.05,74.28,9.32,24.1,16.87,35.17,24.54,47.11,14.27,24.35,29.37,44.44,45.56,59,18,18.57,36.2,33.9,54.76,44.33l44.24,24.68,32,13a46.43,46.43,0,0,1,16,9.62l13.3,11Z" transform="translate(147 0)"/></g><g id="Layer_4" data-name="Layer 4"><text class="cls-3" transform="translate(337.88 902.22)">Catpuccino</text></g></svg>