<?xml version="1.0" encoding="utf-8"?>
<!-- Generator: Adobe Illustrator 24.1.2, SVG Export Plug-In . SVG Version: 6.00 Build 0)  -->
<svg version="1.0" id="Layer_1" xmlns="http://www.w3.org/2000/svg" xmlns:xlink="http://www.w3.org/1999/xlink" x="0px" y="0px"
	 viewBox="0 0 68 74" style="enable-background:new 0 0 68 74;" xml:space="preserve">
<style type="text/css">
	.st0{fill:#435058;}
	.st1{fill:#DCF763;}
	.st2{fill:none;stroke:#435058;stroke-width:0.25;stroke-miterlimit:10;}
	.st3{fill:#435058;stroke:#435058;stroke-miterlimit:10;}
</style>
<rect x="-9.2" y="-11.5" class="st0" width="187.2" height="97.5"/>
<ellipse class="st1" cx="34.4" cy="37.2" rx="32" ry="35.2"/>
<polyline class="st2" points="8.8,43 15.4,43 17.9,48.9 20.3,43 24,43 24,29.2 28.9,29.2 28.9,53.2 33.1,53.2 33.1,23.7 35.8,23.7 
	35.8,18.3 39.8,18.3 39.8,53.2 43.5,53.2 43.5,43.3 46.7,43.3 49.2,37.4 52.1,43.9 56,43.9 "/>
<ellipse class="st3" cx="58" cy="43.5" rx="2.2" ry="2.4"/>
<text transform="matrix(0.9082 0 0 1 71.1359 31.2333)" class="st1" style="font-family:'Cormorant-Light'; font-size:25.953px;">La </text>
<text transform="matrix(0.9082 0 0 1 99.0168 31.2333)" class="st1" style="font-family:'Cormorant-Bold'; font-size:25.953px;">Ciudad</text>
<text transform="matrix(0.9082 0 0 1 71.1359 57.9276)" style="fill:#FFFFFF; font-family:'Cormorant-Regular'; font-size:22.2454px; letter-spacing:3.3;">IGLESIA</text>
</svg>
