<?xml version="1.0" encoding="utf-8"?>
<!-- Generator: Adobe Illustrator 24.1.2, SVG Export Plug-In . SVG Version: 6.00 Build 0)  -->
<svg version="1.0" id="Layer_1" xmlns="http://www.w3.org/2000/svg" xmlns:xlink="http://www.w3.org/1999/xlink" x="0px" y="0px"
	 viewBox="0 0 1181.9 619" style="enable-background:new 0 0 1181.9 619;" xml:space="preserve">
<style type="text/css">
	.st0{fill:#F7CCAC;}
	.st1{fill:#3A3845;}
</style>
<g id="Layer_3">
	<rect class="st0" width="1181.9" height="811.6"/>
</g>
<g id="Layer_2_1_">
	<text transform="matrix(1 0 0 1 -8.498 791.9893)" class="st1" style="font-family:'Ailerons-Regular'; font-size:120px;">The Forum Society</text>
	<polygon class="st1" points="889.3,130.5 863.6,105.1 863.6,105.1 863.6,105.1 863.6,110 863.6,110.1 863.6,167.8 829.1,167.8 
		829.1,224.8 818.1,224.8 818.1,158.8 853.1,158.8 853.1,99.6 853,99.6 853,94.7 790.7,33.2 793.8,510.5 521.5,512.2 519.8,239.9 
		567.4,239.6 567.8,182.7 578.4,182.8 578.1,239.6 642.1,239.2 641.8,193.1 589.4,193.1 589.4,183.2 641.8,183.2 641.7,171.8 
		589.1,171.8 589.1,161.8 641.6,161.8 641.5,141.3 421.2,142.7 424.2,610.8 892.3,607.8 	"/>
	<polygon class="st1" points="297.9,490.6 323.6,516 323.6,516 323.6,516 323.6,511 323.6,510.9 323.6,453.3 358.1,453.3 
		358.1,396.3 369.1,396.3 369.1,462.3 334.1,462.3 334.1,521.4 334.2,521.4 334.2,526.3 396.5,587.8 393.4,110.6 665.7,108.8 
		667.4,381.1 619.8,381.4 619.4,438.3 608.8,438.2 609.1,381.5 545.1,381.9 545.4,427.9 597.8,427.9 597.8,437.9 545.4,437.9 
		545.5,449.3 598.1,449.3 598.1,459.2 545.6,459.2 545.7,479.8 766,478.4 763,10.3 294.9,13.3 	"/>
</g>
</svg>
